<?xml version="1.0" encoding="utf-8"?>
<svg version="1.1" xmlns:xlink="http://www.w3.org/1999/xlink" width="24px" height="23px" xmlns="http://www.w3.org/2000/svg">
  <g transform="matrix(1 0 0 1 -1117 -90 )">
    <path d="M 14.71875 14.10546875  C 15.9831730769231 12.8937299679487  16.6153846153846 11.4354967948718  16.6153846153846 9.73076923076923  C 16.6153846153846 8.02604166666666  15.9831730769231 6.56780849358974  14.71875 5.35606971153846  C 13.4543269230769 4.14433092948718  11.9326923076923 3.53846153846154  10.1538461538462 3.53846153846154  C 8.375 3.53846153846154  6.85336538461539 4.14433092948718  5.58894230769231 5.35606971153846  C 4.32451923076923 6.56780849358974  3.69230769230769 8.02604166666666  3.69230769230769 9.73076923076923  C 3.69230769230769 11.4354967948718  4.32451923076923 12.8937299679487  5.58894230769231 14.10546875  C 6.85336538461539 15.3172075320513  8.375 15.9230769230769  10.1538461538462 15.9230769230769  C 11.9326923076923 15.9230769230769  13.4543269230769 15.3172075320513  14.71875 14.10546875  Z M 23.4663461538462 19.9867788461538  C 23.8221153846154 20.3277243589744  24 20.7423878205128  24 21.2307692307692  C 24 21.7099358974359  23.8173076923077 22.1245993589744  23.4519230769231 22.4747596153846  C 23.0865384615385 22.8249198717949  22.6538461538462 23  22.1538461538462 23  C 21.6346153846154 23  21.2019230769231 22.8249198717949  20.8557692307692 22.4747596153846  L 15.9086538461538 17.7475961538462  C 14.1875 18.8902243589744  12.2692307692308 19.4615384615385  10.1538461538462 19.4615384615385  C 8.77884615384616 19.4615384615385  7.46394230769231 19.2058293269231  6.20913461538462 18.6944110576923  C 4.95432692307692 18.1829927884615  3.87259615384615 17.4918870192308  2.96394230769231 16.62109375  C 2.05528846153846 15.7503004807692  1.33413461538462 14.7136418269231  0.800480769230769 13.5111177884615  C 0.266826923076923 12.30859375  0 11.0484775641026  0 9.73076923076923  C 0 8.41306089743589  0.266826923076923 7.15294471153846  0.800480769230769 5.95042067307692  C 1.33413461538462 4.74789663461538  2.05528846153846 3.71123798076923  2.96394230769231 2.84044471153846  C 3.87259615384615 1.96965144230769  4.95432692307692 1.27854567307692  6.20913461538462 0.767127403846155  C 7.46394230769231 0.255709134615384  8.77884615384616 0  10.1538461538462 0  C 11.5288461538462 0  12.84375 0.255709134615384  14.0985576923077 0.767127403846155  C 15.3533653846154 1.27854567307692  16.4350961538462 1.96965144230769  17.34375 2.84044471153846  C 18.2524038461538 3.71123798076923  18.9735576923077 4.74789663461538  19.5072115384615 5.95042067307692  C 20.0408653846154 7.15294471153846  20.3076923076923 8.41306089743589  20.3076923076923 9.73076923076923  C 20.3076923076923 11.7580128205128  19.7115384615385 13.5963541666667  18.5192307692308 15.2457932692308  L 23.4663461538462 19.9867788461538  Z " fill-rule="nonzero" fill="#fa0c0c" stroke="none" transform="matrix(1 0 0 1 1117 90 )" />
  </g>
</svg>